HIERARCHY
ROOT Hips
{
  OFFSET -35.2597 29.1586 114.425
  CHANNELS 6 Xposition Yposition Zposition Zrotation Xrotation Yrotation
  JOINT LeftUpLeg
  {
    OFFSET 8.64259 1.95398 -2.38835
    CHANNELS 3 Zrotation Xrotation Yrotation
    JOINT LeftLeg
    {
      OFFSET 43.7702 0 0
      CHANNELS 3 Zrotation Xrotation Yrotation
      JOINT LeftFoot
      {
        OFFSET 40.6238 0 0
        CHANNELS 3 Zrotation Xrotation Yrotation
        JOINT LeftToeBase
        {
          OFFSET 12.7242 0 0
          CHANNELS 3 Zrotation Xrotation Yrotation
          End Site
          {
            OFFSET 0 0 0
          }
        }
      }
    }
  }
  JOINT RightUpLeg
  {
    OFFSET -8.2249 1.95398 -2.59336
    CHANNELS 3 Zrotation Xrotation Yrotation
    JOINT RightLeg
    {
      OFFSET 43.5653 0 0
      CHANNELS 3 Zrotation Xrotation Yrotation
      JOINT RightFoot
      {
        OFFSET 40.6238 0 0
        CHANNELS 3 Zrotation Xrotation Yrotation
        JOINT RightToeBase
        {
          OFFSET 12.7242 0 0
          CHANNELS 3 Zrotation Xrotation Yrotation
          End Site
          {
            OFFSET 0 0 0
          }
        }
      }
    }
  }
  JOINT Spine
  {
    OFFSET 0.165834 0.87714 6.61349
    CHANNELS 3 Zrotation Xrotation Yrotation
    JOINT Spine1
    {
      OFFSET 7.38963 1.71661e-005 0
      CHANNELS 3 Zrotation Xrotation Yrotation
      JOINT Spine2
      {
        OFFSET 11.9445 1.14441e-005 0
        CHANNELS 3 Zrotation Xrotation Yrotation
        JOINT Spine3
        {
          OFFSET 14.7254 4.19617e-005 0
          CHANNELS 3 Zrotation Xrotation Yrotation
          JOINT Spine4
          {
            OFFSET 10.9679 0 0
            CHANNELS 3 Zrotation Xrotation Yrotation
            JOINT RightShoulder
            {
              OFFSET 2.46616 -1.6653 3.69651
              CHANNELS 3 Zrotation Xrotation Yrotation
              JOINT RightArm
              {
                OFFSET 13.0012 0 0
                CHANNELS 3 Zrotation Xrotation Yrotation
                JOINT RightForeArm
                {
                  OFFSET 28.7848 1.62311e-005 0
                  CHANNELS 3 Zrotation Xrotation Yrotation
                  JOINT RightHand
                  {
                    OFFSET 26.5688 1.62095e-005 0
                    CHANNELS 3 Zrotation Xrotation Yrotation
                    End Site
                    {
                      OFFSET 0 0 0
                    }
                  }
                }
              }
            }
            JOINT LeftShoulder
            {
              OFFSET 2.38034 -1.29275 -3.7523
              CHANNELS 3 Zrotation Xrotation Yrotation
              JOINT LeftArm
              {
                OFFSET 16.3182 6.07031e-005 0
                CHANNELS 3 Zrotation Xrotation Yrotation
                JOINT LeftForeArm
                {
                  OFFSET 27.0901 0 0
                  CHANNELS 3 Zrotation Xrotation Yrotation
                  JOINT LeftHand
                  {
                    OFFSET 24.5451 1.51738e-005 0
                    CHANNELS 3 Zrotation Xrotation Yrotation
                    End Site
                    {
                      OFFSET 0 0 0
                    }
                  }
                }
              }
            }
            JOINT Neck
            {
              OFFSET 5.0226 -0.0266342 0
              CHANNELS 3 Zrotation Xrotation Yrotation
              JOINT Head
              {
                OFFSET 6.69364 2.86102e-005 0
                CHANNELS 3 Zrotation Xrotation Yrotation
                End Site
                {
                  OFFSET 0 0 0
                }
              }
            }
          }
        }
      }
    }
  }
}
MOTION
Frames:	13
Frame Time:	0.0416667
9.24801 100.475 18.381 -152.245 -81.6549 -152.853 -175.065 -1.62664 88.1636 -13.4543 4.92415 -0.0924494 69.2137 5.38772 -1.13904 17.4563 -10.6374 7.23958 173.297 -3.10906 89.8097 -13.9732 -0.583554 0.768172 69.2486 -5.72988 2.80781 23.5131 1.28868 2.78907 0.189877 7.66727 -90.1073 11.5397 0.327591 -0.24743 -0.131236 0.31638 -0.261608 -22.6667 0.3868 -0.137542 -2.654 0.386802 -0.137542 88.1426 -35.7939 -108.098 44.9947 6.33621 -6.6237 -5.88314 -49.5384 -5.82792 -19.2805 1.9252 -16.9334 -86.6078 -59.9012 85.2408 -25.9523 -12.2157 -16.8401 3.74019 43.0836 -4.81446 2.03161 -0.291557 -9.59516 6.33597 -0.544223 -0.602974 -4.20013 -0.44928 1.1803 
9.23708 100.48 18.3756 -151.871 -81.7536 -152.367 -175.046 -1.44164 88.2599 -13.5716 4.62176 -0.060984 69.3587 5.39731 -1.45643 17.113 -10.7723 7.1019 173.418 -3.33233 89.9406 -13.5991 -0.944853 0.779413 68.9919 -5.68171 2.31143 23.5164 1.17658 3.10279 0.205804 7.64641 -90.1401 11.5815 0.34388 -0.314709 -0.089419 0.329698 -0.329539 -22.6248 0.422563 -0.19681 -2.61215 0.422564 -0.19681 88.3324 -35.4958 -107.863 45.1653 6.31657 -6.41733 -5.85219 -49.186 -5.80602 -19.6547 2.06361 -17.4305 -86.8324 -60.2059 84.9784 -25.6806 -12.3604 -16.7376 3.75024 43.2286 -4.82592 1.7195 -0.288119 -9.91687 6.44651 -0.661594 -0.716982 -4.70151 -0.560534 1.63368 
9.27881 100.474 18.4043 -153.281 -81.8462 -153.97 -175.103 -1.61751 88.0715 -13.3202 5.13325 -0.142145 69.8799 5.88516 -1.64098 16.3273 -12.5293 8.88141 173.305 -3.06359 89.7553 -14.0733 -1.19605 0.754596 69.0673 -5.67692 1.79 22.4107 1.34032 3.89736 0.199699 7.6577 -90.1695 11.5589 0.317967 -0.370454 -0.112082 0.301358 -0.384096 -22.6473 0.414594 -0.25777 -2.63467 0.414604 -0.257767 88.7394 -34.9811 -107.308 45.3428 6.35186 -5.99475 -5.74022 -47.8695 -5.72957 -21.4373 2.65112 -19.6167 -87.2691 -61.1138 84.5164 -24.9606 -12.7337 -16.5712 3.70393 42.5827 -4.7755 1.52313 -0.329524 -11.3808 5.95179 -0.94396 -0.287094 -3.57722 -0.907904 1.64692 
9.29044 100.477 18.4903 -153.345 -81.9399 -154.076 -175.06 -1.62874 88.044 -13.2802 5.17628 -0.208042 70.0018 5.98832 -1.57016 16.3204 -12.4188 8.71568 173.162 -2.90266 89.6479 -14.1749 -0.913917 0.81739 69.2545 -5.73251 2.32304 22.3586 1.43585 3.68594 0.171471 7.65739 -90.1625 11.5594 0.265136 -0.350988 -0.111532 0.249428 -0.362323 -22.6467 0.358356 -0.25508 -2.63403 0.358365 -0.255073 88.609 -35.0608 -107.518 45.1577 6.42663 -6.0166 -5.77031 -48.2308 -5.75001 -21.4157 2.64706 -19.5907 -87.1788 -61.0782 84.6323 -25.0741 -12.6691 -16.6802 3.71072 42.6856 -4.78342 1.7681 -0.314455 -10.5607 6.11035 -0.816124 -0.119068 -3.55096 -0.805294 1.26657 
9.29374 100.475 18.5175 -151.089 -81.7047 -151.603 -174.924 -1.62454 88.2602 -13.5208 4.71539 -0.221405 70.1928 5.92642 -2.00314 16.6067 -12.6953 9.38687 173.315 -2.90807 89.8749 -14.0938 -1.11861 0.774329 68.9792 -5.67848 2.16167 22.4705 1.27642 4.00694 0.241913 7.66434 -90.1534 11.5458 0.409513 -0.34777 -0.125156 0.393806 -0.36547 -22.6607 0.495097 -0.208612 -2.64801 0.495098 -0.208627 88.4293 -35.5667 -107.661 44.8208 6.55457 -6.08726 -5.79401 -48.5128 -5.7662 -20.6998 2.40239 -18.7509 -87.3843 -60.3665 84.2583 -25.3409 -12.5505 -16.4753 3.76934 43.478 -4.84584 1.67249 -0.341899 -11.4798 5.85685 -0.987416 -0.857802 -3.1583 -0.83659 1.68208 
9.35159 100.472 18.5668 -154.723 -82.0226 -155.548 -175.102 -1.55991 87.9343 -13.5391 5.76024 -0.243265 69.9118 5.98989 -1.37956 16.8467 -12.4606 9.28906 173.198 -2.89123 89.5128 -14.1147 -1.60602 0.721051 68.7647 -5.48391 1.79437 23.254 1.12197 3.56401 0.167802 7.64839 -90.1231 11.5774 0.276247 -0.273678 -0.0935528 0.263936 -0.285576 -22.6288 0.34572 -0.178002 -2.61618 0.345729 -0.177996 88.3715 -35.6866 -107.723 44.704 6.74754 -5.54372 -5.75678 -48.0687 -5.74081 -22.0135 2.862 -20.3078 -87.4219 -60.872 84.2791 -25.0553 -12.6933 -16.472 3.69509 42.3404 -4.77032 1.15766 -0.298176 -11.128 5.6097 -0.994073 -0.89287 -2.91677 -0.83693 1.80244 
9.33111 100.489 18.6437 -153.177 -81.8423 -153.911 -175.03 -1.78286 88.0309 -13.3414 5.23234 -0.24522 69.9494 6.00465 -1.51605 16.9301 -12.4001 9.28508 173.164 -3.05746 89.602 -14.1569 -1.07809 0.769182 69.1597 -5.64534 2.11769 22.3289 1.31131 4.06695 0.196328 7.64195 -90.1345 11.5903 0.327624 -0.301788 -0.0805941 0.314026 -0.315922 -22.616 0.403164 -0.189379 -2.60331 0.403179 -0.189371 88.5403 -35.6413 -107.432 44.9238 6.67735 -5.45138 -5.74958 -47.9833 -5.73591 -21.8949 2.87047 -20.4282 -87.1921 -60.8448 84.5824 -25.0726 -12.6912 -16.3796 3.77604 43.6124 -4.85249 2.21939 -0.344129 -10.672 5.592 -0.954379 -0.931849 -3.08496 -0.798504 2.08006 
9.35342 100.503 18.7108 -153.161 -81.8404 -153.937 -175.062 -1.86568 87.9591 -13.2957 5.17974 -0.233162 69.9222 6.0023 -1.47286 16.7371 -12.1304 8.70999 173.153 -3.10479 89.5403 -14.1205 -1.42135 0.734983 69.024 -5.55167 2.02402 22.56 1.4014 3.55683 0.214858 7.66904 -90.1119 11.5362 0.37516 -0.261351 -0.134745 0.363296 -0.277611 -22.6703 0.436361 -0.136516 -2.65761 0.436362 -0.136517 88.7 -36.1076 -106.976 44.6391 6.71178 -5.7882 -5.75102 -47.9995 -5.73692 -21.558 2.90902 -20.8951 -87.1679 -60.5517 84.5743 -25.2985 -12.5475 -16.8041 3.75568 43.2606 -4.83205 1.87817 -0.307352 -10.2095 5.96335 -1.10782 -1.50261 -3.36592 -0.84932 2.46321 
9.37703 100.493 18.7758 -151.416 -81.8486 -152.048 -175.001 -1.67541 88.0871 -13.4784 5.32548 -0.254286 70.0017 6.09149 -1.14712 16.5007 -12.2195 8.60746 173.229 -3.03922 89.6978 -14.0406 -1.66893 0.757344 68.893 -5.58726 1.53196 22.5677 1.24652 3.98315 0.23178 7.64372 -90.1154 11.5869 0.407057 -0.272072 -0.0839857 0.394694 -0.289737 -22.6196 0.470007 -0.137155 -2.60693 0.470006 -0.137164 88.7011 -36.2364 -106.928 44.4924 6.66815 -6.20002 -5.80506 -48.6422 -5.77379 -19.4769 2.4027 -19.6473 -87.0726 -60.5059 84.6958 -25.2766 -12.57 -16.6487 3.71998 42.76 -4.79474 1.93507 -0.309083 -10.177 5.6421 -1.0872 -1.63476 -3.31491 -0.808521 2.49203 
9.42691 100.48 18.7871 -150.506 -81.6583 -151.138 -174.933 -1.94283 88.0789 -13.2597 4.6031 -0.305558 70.2308 6.14728 -1.69038 16.1611 -12.4173 8.55973 173.094 -3.09469 89.5515 -14.1332 -1.51918 0.814006 69.1562 -5.65046 2.21604 22.2627 1.35632 4.01224 0.262119 7.64605 -90.1202 11.5824 0.465221 -0.28746 -0.0885275 0.452113 -0.307662 -22.6243 0.530097 -0.134352 -2.61163 0.530106 -0.134349 88.7242 -36.1341 -106.922 44.7835 6.64333 -5.81098 -5.77647 -48.304 -5.75422 -21.0957 2.70567 -20.1438 -87.2045 -60.5685 84.5277 -25.2876 -12.5782 -16.4607 3.73384 42.9185 -4.81102 2.4396 -0.350767 -10.563 5.16258 -1.25455 -1.76928 -2.96821 -0.953836 2.85401 
9.44279 100.489 18.8415 -149.44 -81.6933 -149.99 -175.006 -1.75385 88.0687 -13.4815 4.41697 -0.19926 70.1663 6.00472 -1.82669 16.7528 -12.255 8.90359 173.309 -3.14416 89.7218 -13.9172 -1.38475 0.661667 69.1022 -5.65129 2.25691 22.1876 1.33013 4.16646 0.265967 7.63762 -90.1314 11.5993 0.467543 -0.310281 -0.0715655 0.453434 -0.330562 -22.6073 0.539179 -0.155414 -2.59466 0.539178 -0.155425 88.7101 -36.0966 -106.961 44.8249 6.50416 -6.26993 -5.86024 -49.2791 -5.81188 -19.7053 2.16858 -18.0724 -87.1021 -60.7876 84.695 -25.15 -12.6381 -16.5849 3.70732 42.4881 -4.7827 1.8917 -0.313977 -10.3732 5.09199 -1.13357 -1.54151 -2.95461 -0.87248 2.54577 
9.49172 100.488 18.9062 -149.125 -81.8217 -149.642 -175.034 -1.58897 88.0567 -13.6129 4.49919 -0.178418 70.2849 6.09705 -1.81599 16.6112 -12.4604 9.05775 173.224 -2.97096 89.6911 -13.9187 -1.53499 0.786765 68.8363 -5.52966 2.03072 22.7782 1.12134 4.10246 0.259218 7.62603 -90.1532 11.6224 0.443911 -0.351326 -0.0485361 0.428021 -0.370526 -22.5842 0.52898 -0.201664 -2.57149 0.528971 -0.20168 88.8551 -35.8268 -106.793 44.7824 6.51007 -6.31954 -5.86752 -49.3643 -5.81699 -19.1225 2.18698 -18.6222 -87.1322 -61.1717 84.7071 -25.0526 -12.686 -16.594 3.729 42.7472 -4.80821 2.1812 -0.347441 -10.8245 4.99915 -1.10944 -1.29116 -3.04077 -0.896773 2.4837 
9.50062 100.453 19.0141 -150.396 -82.035 -151.125 -175.105 -1.72052 87.862 -13.2946 4.68185 -0.230222 70.2864 6.29996 -1.56251 16.6197 -12.485 9.1011 173.01 -3.11009 89.3911 -13.9 -1.26711 0.88809 69.2517 -5.60627 2.48806 22.6255 1.35671 3.60962 0.21675 7.60587 -90.1146 11.6626 0.3774 -0.267842 -0.00829801 0.365256 -0.284198 -22.5438 0.440454 -0.14203 -2.53117 0.440446 -0.142039 88.7112 -36.0374 -106.98 45.1613 6.37112 -6.21855 -5.84581 -49.1145 -5.8019 -20.4228 2.09103 -17.1827 -87.0784 -60.9016 84.7421 -25.223 -12.586 -16.7976 3.74984 42.9805 -4.8319 2.03721 -0.270077 -9.03089 4.71598 -1.05376 -1.47414 -2.92928 -0.811067 2.54061 
